<?xml version="1.0" encoding="UTF-8"?>
<!DOCTYPE svg PUBLIC "-//W3C//DTD SVG 1.1//EN" "http://www.w3.org/Graphics/SVG/1.1/DTD/svg11.dtd">
<svg version="1.1" xmlns="http://www.w3.org/2000/svg" xmlns:xlink="http://www.w3.org/1999/xlink" x="0" y="0" width="952.695" height="980" viewBox="0, 0, 388.855, 400">
  <g id="Layer_1" transform="translate(-209.609, -776.211)">
    <g>
      <path d="M562.796,780.101 C562.796,780.101 539.184,777.047 503.783,784.811 C505.949,790.869 508.781,800.042 511.158,811.873 C535.394,806.472 555.708,805.378 569.817,805.604 C566.674,789.312 562.796,780.101 562.796,780.101" fill="#D6B4CB"/>
      <path d="M511.158,811.873 C472.65,820.453 424.266,839.909 375.213,882.207 C446.896,826.191 513.966,834.658 513.966,834.658 C513.966,834.658 514.272,835.385 514.769,836.757 C513.918,827.519 512.627,819.189 511.158,811.873" fill="#E17DA7"/>
      <path d="M514.302,834.81 C514.302,834.81 411.152,821.761 323.972,934.869 C284.813,985.675 253.836,1077.156 253.836,1077.156 L347.162,1147.248 C347.162,1147.248 428.216,1093.377 467.376,1042.57 C554.555,929.463 514.302,834.81 514.302,834.81" fill="#FFFFFE"/>
      <path d="M261.436,1032.839 C276.754,995.133 302.574,938.164 332.144,900.151 C392.001,823.209 457.828,794.891 503.783,784.811 C501.814,779.295 500.397,776.348 500.397,776.348 C500.397,776.348 469.478,773.919 426.666,789.498 C384.125,804.978 329.84,838.238 282.459,909.346 C239.758,973.43 209.609,1086.45 209.609,1086.45 L324.903,1166.024 C324.903,1166.024 327.63,1163.94 332.362,1160.164 L240.042,1083.392 C240.042,1083.392 243.978,1074.32 250.866,1060.004 C253.38,1053.23 256.959,1043.862 261.436,1032.839" fill="#5E98C1"/>
      <path d="M346.827,1147.097 L299.018,1111.19 L253.552,1076.856 C253.568,1076.807 253.603,1076.705 253.629,1076.63 C250.977,1074.626 248.364,1072.652 245.797,1070.714 C242.088,1078.678 240.042,1083.393 240.042,1083.393 L332.362,1160.165 C336.211,1157.092 341.385,1152.901 347.499,1147.8 C349.844,1145.843 352.334,1143.745 354.933,1141.532 C349.824,1145.102 346.827,1147.097 346.827,1147.097" fill="#8DCFD4"/>
      <path d="M503.783,784.811 C457.828,794.891 392.001,823.209 332.144,900.151 C302.574,938.164 276.754,995.134 261.436,1032.839 C256.959,1043.862 253.38,1053.23 250.866,1060.004 C248.933,1064.021 247.242,1067.607 245.797,1070.714 C248.364,1072.652 250.977,1074.626 253.629,1076.63 C254.442,1074.258 259.763,1058.908 268.304,1038.14 C277.065,1016.844 289.195,989.911 303.266,965.605 C309.697,954.497 316.53,943.936 323.637,934.716 C340.519,912.814 357.998,895.659 375.212,882.207 C424.266,839.909 472.65,820.453 511.158,811.873 C508.781,800.042 505.949,790.869 503.783,784.811" fill="#D799B9"/>
      <path d="M591.583,808.241 C591.381,807.608 591.26,807.267 591.26,807.267 C591.26,807.267 583.417,805.823 569.817,805.604 C575.115,833.067 578.305,880.67 557.298,938.3 C546.821,967.04 530.34,998.267 505.08,1030.739 C457.485,1091.921 359.206,1156.64 359.206,1156.64 L347.499,1147.8 C341.385,1152.901 336.211,1157.092 332.362,1160.165 L351.659,1176.211 C351.659,1176.211 459.002,1116.61 513.108,1057.535 C627.276,932.884 595.237,819.715 591.583,808.241" fill="#53BAB3"/>
      <path d="M569.817,805.604 C555.708,805.378 535.394,806.472 511.158,811.873 C512.627,819.189 513.918,827.519 514.769,836.757 C519.99,851.219 546.664,939.113 467.04,1042.418 C463.171,1047.438 458.89,1052.486 454.32,1057.512 C421.531,1093.575 373.796,1128.349 354.933,1141.532 C352.334,1143.745 349.844,1145.843 347.499,1147.8 L359.206,1156.64 C359.206,1156.64 457.485,1091.921 505.08,1030.739 C530.34,998.267 546.821,967.04 557.298,938.3 C578.305,880.67 575.115,833.067 569.817,805.604" fill="#DB2F7C"/>
    </g>
  </g>
</svg>
